<svg width="241" height="92" viewBox="0 0 241 92" fill="none" xmlns="http://www.w3.org/2000/svg">
<path d="M49.3471 62.136C49.3471 65.464 48.5151 68.6533 46.8511 71.704C45.1871 74.6853 42.7257 77.1813 39.4671 79.192C36.2777 81.2027 32.4297 82.3467 27.9231 82.624V91.048H22.3071V82.624C15.9977 82.0693 10.8671 80.0587 6.91506 76.592C2.96306 73.056 0.952396 68.584 0.883063 63.176H10.9711C11.2484 66.088 12.3231 68.6187 14.1951 70.768C16.1364 72.9173 18.8404 74.2693 22.3071 74.824V48.824C17.6617 47.6453 13.9177 46.432 11.0751 45.184C8.2324 43.936 5.80573 41.9947 3.79506 39.36C1.7844 36.7253 0.779063 33.1893 0.779063 28.752C0.779063 23.136 2.7204 18.4907 6.60306 14.816C10.5551 11.1413 15.7897 9.09599 22.3071 8.68V0.0479951H27.9231V8.68C33.8164 9.16533 38.5657 11.072 42.1711 14.4C45.7764 17.6587 47.8564 21.9227 48.4111 27.192H38.3231C37.9764 24.7653 36.9017 22.5813 35.0991 20.64C33.2964 18.6293 30.9044 17.312 27.9231 16.688V42.064C32.4991 43.2427 36.2084 44.456 39.0511 45.704C41.9631 46.8827 44.3897 48.7893 46.3311 51.424C48.3417 54.0587 49.3471 57.6293 49.3471 62.136ZM10.4511 28.232C10.4511 31.6293 11.4564 34.2293 13.4671 36.032C15.4777 37.8347 18.4244 39.3253 22.3071 40.504V16.48C18.7017 16.8267 15.8244 18.0053 13.6751 20.016C11.5257 21.9573 10.4511 24.696 10.4511 28.232ZM27.9231 74.928C31.6671 74.512 34.5791 73.16 36.6591 70.872C38.8084 68.584 39.8831 65.8453 39.8831 62.656C39.8831 59.2587 38.8431 56.6587 36.7631 54.856C34.6831 52.984 31.7364 51.4933 27.9231 50.384V74.928ZM71.1864 15.44V6.80799H90.7384V82H81.1704V15.44H71.1864ZM112.707 65.256V58.08L149.211 7.536H160.547V57.04H170.947V65.256H160.547V82H151.187V65.256H112.707ZM151.603 17.416L123.627 57.04H151.603V17.416ZM200.569 61.824C201.262 65.776 202.857 68.8267 205.353 70.976C207.918 73.1253 211.35 74.2 215.649 74.2C221.404 74.2 225.633 71.9467 228.337 67.44C231.11 62.9333 232.428 55.3413 232.289 44.664C230.833 47.784 228.406 50.2453 225.009 52.048C221.612 53.7813 217.833 54.648 213.673 54.648C209.028 54.648 204.868 53.712 201.193 51.84C197.588 49.8987 194.745 47.0907 192.665 43.416C190.585 39.7413 189.545 35.304 189.545 30.104C189.545 22.6853 191.694 16.7227 195.993 12.216C200.292 7.64 206.393 5.35199 214.297 5.35199C224.004 5.35199 230.798 8.50666 234.681 14.816C238.633 21.1253 240.609 30.52 240.609 43C240.609 51.736 239.812 58.9467 238.217 64.632C236.692 70.3173 234.057 74.6507 230.313 77.632C226.638 80.6133 221.577 82.104 215.129 82.104C208.057 82.104 202.545 80.1973 198.593 76.384C194.641 72.5707 192.388 67.7173 191.833 61.824H200.569ZM215.233 46.64C219.878 46.64 223.692 45.2187 226.673 42.376C229.654 39.464 231.145 35.5467 231.145 30.624C231.145 25.424 229.689 21.2293 226.777 18.04C223.865 14.8507 219.774 13.256 214.505 13.256C209.652 13.256 205.769 14.7813 202.857 17.832C200.014 20.8827 198.593 24.904 198.593 29.896C198.593 34.9573 200.014 39.0133 202.857 42.064C205.7 45.1147 209.825 46.64 215.233 46.64Z" fill="#FF9209"/>
</svg>
