<svg width="131" height="96" viewBox="0 0 131 96" fill="none" xmlns="http://www.w3.org/2000/svg">
<path d="M51.3105 65.372C51.3105 68.828 50.4465 72.14 48.7185 75.308C46.9905 78.404 44.4345 80.996 41.0505 83.084C37.7385 85.172 33.7425 86.36 29.0625 86.648V95.396H23.2305V86.648C16.6785 86.072 11.3505 83.984 7.24653 80.384C3.14253 76.712 1.05453 72.068 0.982532 66.452H11.4585C11.7465 69.476 12.8625 72.104 14.8065 74.336C16.8225 76.568 19.6305 77.972 23.2305 78.548V51.548C18.4065 50.324 14.5185 49.064 11.5665 47.768C8.61453 46.472 6.09453 44.456 4.00653 41.72C1.91853 38.984 0.874532 35.312 0.874532 30.704C0.874532 24.872 2.89053 20.048 6.92253 16.232C11.0265 12.416 16.4625 10.292 23.2305 9.86V0.895995H29.0625V9.86C35.1825 10.364 40.1145 12.344 43.8585 15.8C47.6025 19.184 49.7625 23.612 50.3385 29.084H39.8625C39.5025 26.564 38.3865 24.296 36.5145 22.28C34.6425 20.192 32.1585 18.824 29.0625 18.176V44.528C33.8145 45.752 37.6665 47.012 40.6185 48.308C43.6425 49.532 46.1625 51.512 48.1785 54.248C50.2665 56.984 51.3105 60.692 51.3105 65.372ZM10.9185 30.164C10.9185 33.692 11.9625 36.392 14.0505 38.264C16.1385 40.136 19.1985 41.684 23.2305 42.908V17.96C19.4865 18.32 16.4985 19.544 14.2665 21.632C12.0345 23.648 10.9185 26.492 10.9185 30.164ZM29.0625 78.656C32.9505 78.224 35.9745 76.82 38.1345 74.444C40.3665 72.068 41.4825 69.224 41.4825 65.912C41.4825 62.384 40.4025 59.684 38.2425 57.812C36.0825 55.868 33.0225 54.32 29.0625 53.168V78.656ZM88.9101 65.048C89.6301 69.152 91.2861 72.32 93.8781 74.552C96.5421 76.784 100.106 77.9 104.57 77.9C110.546 77.9 114.938 75.56 117.746 70.88C120.626 66.2 121.994 58.316 121.85 47.228C120.338 50.468 117.818 53.024 114.29 54.896C110.762 56.696 106.838 57.596 102.518 57.596C97.6941 57.596 93.3741 56.624 89.5581 54.68C85.8141 52.664 82.8621 49.748 80.7021 45.932C78.5421 42.116 77.4621 37.508 77.4621 32.108C77.4621 24.404 79.6941 18.212 84.1581 13.532C88.6221 8.78 94.9581 6.40399 103.166 6.40399C113.246 6.40399 120.302 9.68 124.334 16.232C128.438 22.784 130.49 32.54 130.49 45.5C130.49 54.572 129.662 62.06 128.006 67.964C126.422 73.868 123.686 78.368 119.798 81.464C115.982 84.56 110.726 86.108 104.03 86.108C96.6861 86.108 90.9621 84.128 86.8581 80.168C82.7541 76.208 80.4141 71.168 79.8381 65.048H88.9101ZM104.138 49.28C108.962 49.28 112.922 47.804 116.018 44.852C119.114 41.828 120.662 37.76 120.662 32.648C120.662 27.248 119.15 22.892 116.126 19.58C113.102 16.268 108.854 14.612 103.382 14.612C98.3421 14.612 94.3101 16.196 91.2861 19.364C88.3341 22.532 86.8581 26.708 86.8581 31.892C86.8581 37.148 88.3341 41.36 91.2861 44.528C94.2381 47.696 98.5221 49.28 104.138 49.28Z" fill="#0278ED"/>
</svg>
