<svg width="201" height="93" viewBox="0 0 201 93" fill="none" xmlns="http://www.w3.org/2000/svg">
<path d="M49.5386 62.945C49.5386 66.305 48.6986 69.525 47.0186 72.605C45.3386 75.615 42.8536 78.135 39.5636 80.165C36.3436 82.195 32.4586 83.35 27.9086 83.63V92.135H22.2386V83.63C15.8686 83.07 10.6886 81.04 6.69861 77.54C2.70861 73.97 0.678614 69.455 0.608614 63.995H10.7936C11.0736 66.935 12.1586 69.49 14.0486 71.66C16.0086 73.83 18.7386 75.195 22.2386 75.755V49.505C17.5486 48.315 13.7686 47.09 10.8986 45.83C8.02861 44.57 5.57861 42.61 3.54861 39.95C1.51861 37.29 0.503614 33.72 0.503614 29.24C0.503614 23.57 2.46361 18.88 6.38361 15.17C10.3736 11.46 15.6586 9.39499 22.2386 8.975V0.259995H27.9086V8.975C33.8586 9.465 38.6536 11.39 42.2936 14.75C45.9336 18.04 48.0336 22.345 48.5936 27.665H38.4086C38.0586 25.215 36.9736 23.01 35.1536 21.05C33.3336 19.02 30.9186 17.69 27.9086 17.06V42.68C32.5286 43.87 36.2736 45.095 39.1436 46.355C42.0836 47.545 44.5336 49.47 46.4936 52.13C48.5236 54.79 49.5386 58.395 49.5386 62.945ZM10.2686 28.715C10.2686 32.145 11.2836 34.77 13.3136 36.59C15.3436 38.41 18.3186 39.915 22.2386 41.105V16.85C18.5986 17.2 15.6936 18.39 13.5236 20.42C11.3536 22.38 10.2686 25.145 10.2686 28.715ZM27.9086 75.86C31.6886 75.44 34.6286 74.075 36.7286 71.765C38.8986 69.455 39.9836 66.69 39.9836 63.47C39.9836 60.04 38.9336 57.415 36.8336 55.595C34.7336 53.705 31.7586 52.2 27.9086 51.08V75.86ZM86.316 62.63C87.016 66.62 88.626 69.7 91.146 71.87C93.736 74.04 97.201 75.125 101.541 75.125C107.351 75.125 111.621 72.85 114.351 68.3C117.151 63.75 118.481 56.085 118.341 45.305C116.871 48.455 114.421 50.94 110.991 52.76C107.561 54.51 103.746 55.385 99.546 55.385C94.856 55.385 90.656 54.44 86.946 52.55C83.306 50.59 80.436 47.755 78.336 44.045C76.236 40.335 75.186 35.855 75.186 30.605C75.186 23.115 77.356 17.095 81.696 12.545C86.036 7.925 92.196 5.61499 100.176 5.61499C109.976 5.61499 116.836 8.8 120.756 15.17C124.746 21.54 126.741 31.025 126.741 43.625C126.741 52.445 125.936 59.725 124.326 65.465C122.786 71.205 120.126 75.58 116.346 78.59C112.636 81.6 107.526 83.105 101.016 83.105C93.876 83.105 88.311 81.18 84.321 77.33C80.331 73.48 78.056 68.58 77.496 62.63H86.316ZM101.121 47.3C105.811 47.3 109.661 45.865 112.671 42.995C115.681 40.055 117.186 36.1 117.186 31.13C117.186 25.88 115.716 21.645 112.776 18.425C109.836 15.205 105.706 13.595 100.386 13.595C95.486 13.595 91.566 15.135 88.626 18.215C85.756 21.295 84.321 25.355 84.321 30.395C84.321 35.505 85.756 39.6 88.626 42.68C91.496 45.76 95.661 47.3 101.121 47.3ZM160.454 62.63C161.154 66.62 162.764 69.7 165.284 71.87C167.874 74.04 171.339 75.125 175.679 75.125C181.489 75.125 185.759 72.85 188.489 68.3C191.289 63.75 192.619 56.085 192.479 45.305C191.009 48.455 188.559 50.94 185.129 52.76C181.699 54.51 177.884 55.385 173.684 55.385C168.994 55.385 164.794 54.44 161.084 52.55C157.444 50.59 154.574 47.755 152.474 44.045C150.374 40.335 149.324 35.855 149.324 30.605C149.324 23.115 151.494 17.095 155.834 12.545C160.174 7.925 166.334 5.61499 174.314 5.61499C184.114 5.61499 190.974 8.8 194.894 15.17C198.884 21.54 200.879 31.025 200.879 43.625C200.879 52.445 200.074 59.725 198.464 65.465C196.924 71.205 194.264 75.58 190.484 78.59C186.774 81.6 181.664 83.105 175.154 83.105C168.014 83.105 162.449 81.18 158.459 77.33C154.469 73.48 152.194 68.58 151.634 62.63H160.454ZM175.259 47.3C179.949 47.3 183.799 45.865 186.809 42.995C189.819 40.055 191.324 36.1 191.324 31.13C191.324 25.88 189.854 21.645 186.914 18.425C183.974 15.205 179.844 13.595 174.524 13.595C169.624 13.595 165.704 15.135 162.764 18.215C159.894 21.295 158.459 25.355 158.459 30.395C158.459 35.505 159.894 39.6 162.764 42.68C165.634 45.76 169.799 47.3 175.259 47.3Z" fill="#FF5437"/>
</svg>
