<svg width="167" height="71" viewBox="0 0 167 71" fill="none" xmlns="http://www.w3.org/2000/svg">
<path d="M0.772246 63.065C8.81558 56.605 15.1172 51.3167 19.6772 47.2C24.2372 43.02 28.0689 38.6817 31.1722 34.185C34.3389 29.625 35.9222 25.16 35.9222 20.79C35.9222 16.6733 34.9089 13.4433 32.8822 11.1C30.9189 8.69333 27.7206 7.49 23.2872 7.49C18.9806 7.49 15.6239 8.85166 13.2172 11.575C10.8739 14.235 9.60725 17.8133 9.41725 22.31H1.05725C1.31058 15.2167 3.46391 9.73833 7.51725 5.875C11.5706 2.01166 16.7956 0.0799942 23.1922 0.0799942C29.7156 0.0799942 34.8772 1.885 38.6772 5.495C42.5406 9.105 44.4722 14.0767 44.4722 20.41C44.4722 25.6667 42.8889 30.7967 39.7222 35.8C36.6189 40.74 33.0722 45.11 29.0822 48.91C25.0922 52.6467 19.9939 57.0167 13.7872 62.02H46.4672V69.24H0.772246V63.065ZM100.256 8.81999H66.9108V30.48C68.3675 28.4533 70.5208 26.8067 73.3708 25.54C76.2208 24.21 79.2925 23.545 82.5858 23.545C87.8425 23.545 92.1175 24.6533 95.4108 26.87C98.7041 29.0233 101.047 31.8417 102.441 35.325C103.897 38.745 104.626 42.3867 104.626 46.25C104.626 50.81 103.771 54.895 102.061 58.505C100.351 62.115 97.7225 64.965 94.1758 67.055C90.6925 69.145 86.3541 70.19 81.1608 70.19C74.5108 70.19 69.1275 68.48 65.0108 65.06C60.8941 61.64 58.3925 57.08 57.5058 51.38H65.9608C66.7841 54.99 68.5258 57.8083 71.1858 59.835C73.8458 61.8617 77.2025 62.875 81.2558 62.875C86.2591 62.875 90.0275 61.3867 92.5608 58.41C95.0941 55.37 96.3608 51.38 96.3608 46.44C96.3608 41.5 95.0941 37.7 92.5608 35.04C90.0275 32.3167 86.2908 30.955 81.3508 30.955C77.9941 30.955 75.0491 31.7783 72.5158 33.425C70.0458 35.0083 68.2408 37.1933 67.1008 39.98H58.9308V1.22H100.256V8.81999ZM166.939 38.935H146.704V59.455H138.629V38.935H118.489V31.62H138.629V11.005H146.704V31.62H166.939V38.935Z" fill="white"/>
</svg>
