<svg width="236" height="71" viewBox="0 0 236 71" fill="none" xmlns="http://www.w3.org/2000/svg">
<path d="M0.605625 55.544V48.92L34.3016 2.264H44.7656V47.96H54.3656V55.544H44.7656V71H36.1256V55.544H0.605625ZM36.5096 11.384L10.6856 47.96H36.5096V11.384ZM63.0926 35.576C63.0926 24.568 64.8846 15.992 68.4686 9.848C72.0526 3.64 78.3246 0.535997 87.2846 0.535997C96.1806 0.535997 102.421 3.64 106.005 9.848C109.589 15.992 111.381 24.568 111.381 35.576C111.381 46.776 109.589 55.48 106.005 61.688C102.421 67.896 96.1806 71 87.2846 71C78.3246 71 72.0526 67.896 68.4686 61.688C64.8846 55.48 63.0926 46.776 63.0926 35.576ZM102.741 35.576C102.741 30.008 102.357 25.304 101.589 21.464C100.885 17.56 99.3806 14.424 97.0766 12.056C94.8366 9.688 91.5726 8.504 87.2846 8.504C82.9326 8.504 79.6046 9.688 77.3006 12.056C75.0606 14.424 73.5566 17.56 72.7886 21.464C72.0846 25.304 71.7326 30.008 71.7326 35.576C71.7326 41.336 72.0846 46.168 72.7886 50.072C73.5566 53.976 75.0606 57.112 77.3006 59.48C79.6046 61.848 82.9326 63.032 87.2846 63.032C91.5726 63.032 94.8366 61.848 97.0766 59.48C99.3806 57.112 100.885 53.976 101.589 50.072C102.357 46.168 102.741 41.336 102.741 35.576ZM123.374 35.576C123.374 24.568 125.166 15.992 128.75 9.848C132.334 3.64 138.606 0.535997 147.566 0.535997C156.462 0.535997 162.702 3.64 166.286 9.848C169.87 15.992 171.662 24.568 171.662 35.576C171.662 46.776 169.87 55.48 166.286 61.688C162.702 67.896 156.462 71 147.566 71C138.606 71 132.334 67.896 128.75 61.688C125.166 55.48 123.374 46.776 123.374 35.576ZM163.022 35.576C163.022 30.008 162.638 25.304 161.87 21.464C161.166 17.56 159.662 14.424 157.358 12.056C155.118 9.688 151.854 8.504 147.566 8.504C143.214 8.504 139.886 9.688 137.582 12.056C135.342 14.424 133.838 17.56 133.07 21.464C132.366 25.304 132.014 30.008 132.014 35.576C132.014 41.336 132.366 46.168 133.07 50.072C133.838 53.976 135.342 57.112 137.582 59.48C139.886 61.848 143.214 63.032 147.566 63.032C151.854 63.032 155.118 61.848 157.358 59.48C159.662 57.112 161.166 53.976 161.87 50.072C162.638 46.168 163.022 41.336 163.022 35.576ZM235.015 39.608H214.567V60.344H206.407V39.608H186.055V32.216H206.407V11.384H214.567V32.216H235.015V39.608Z" fill="white"/>
</svg>
