<svg width="72" height="23" viewBox="0 0 72 23" fill="none" xmlns="http://www.w3.org/2000/svg">
<path fill-rule="evenodd" clip-rule="evenodd" d="M37.8318 7.30567C38.7138 7.30567 39.5113 7.52167 40.2262 7.95367C40.9405 8.38567 41.5063 9.00033 41.9223 9.79633C42.3383 10.5923 42.546 11.515 42.546 12.565C42.546 13.6137 42.3383 14.543 41.9223 15.3517C41.5063 16.161 40.9405 16.787 40.2262 17.2317C39.5113 17.6757 38.7138 17.8983 37.8318 17.8983C37.0737 17.8983 36.406 17.7443 35.8282 17.435C35.3157 17.161 34.8876 16.823 34.5455 16.4217L34.4217 16.2683V22.6203H31.813V7.47233H34.4217V8.95367L34.5382 8.80033C34.8617 8.39833 35.2857 8.05767 35.8102 7.77767C36.4007 7.463 37.0737 7.30567 37.8318 7.30567ZM50.4653 7.30567C51.3473 7.30567 52.1455 7.52167 52.8597 7.95367C53.574 8.38567 54.1391 9.00033 54.5551 9.79633C54.9712 10.5923 55.1795 11.515 55.1795 12.565C55.1795 13.6137 54.9712 14.543 54.5551 15.3517C54.1391 16.161 53.574 16.787 52.8597 17.2317C52.1455 17.6757 51.3473 17.8983 50.4653 17.8983C49.7078 17.8983 49.0402 17.7443 48.4624 17.435C47.9485 17.161 47.5211 16.823 47.1797 16.4217L47.0552 16.2683V22.6203H44.4471V7.47233H47.0552V8.95367L47.1717 8.80033C47.4952 8.39833 47.9185 8.05767 48.4431 7.77767C49.0335 7.463 49.7078 7.30567 50.4653 7.30567ZM63.8577 7.47233L66.5223 14.639L69.2235 7.47233H72L65.609 22.5837H62.8326L65.0685 17.4723L60.9321 7.47233H63.8577ZM20.2206 0.620335V0.861001L19.9683 1.107C18.7255 2.353 17.7689 3.82633 17.0993 5.52767C16.385 7.34233 16.0276 9.213 16.0276 11.139C16.0276 13.0157 16.3664 14.8277 17.044 16.5743C17.7203 18.321 18.6862 19.8363 19.941 21.1203V21.3797H17.3136L17.1033 21.171C15.9996 20.0437 15.1343 18.6317 14.5092 16.935C13.8449 15.133 13.5127 13.2003 13.5127 11.139C13.5127 9.02767 13.8602 7.043 14.5558 5.185C15.2514 3.327 16.2639 1.80567 17.5932 0.620335H20.2206ZM56.0955 0.620335L56.3264 0.833001C57.5419 1.98567 58.4778 3.43633 59.1329 5.185C59.8285 7.043 60.1759 9.02767 60.1759 11.139C60.1759 13.2003 59.8431 15.133 59.1788 16.935C58.5145 18.7377 57.5799 20.2197 56.3744 21.3797H53.747V21.1203L53.9793 20.877C55.1223 19.6457 56.0103 18.2117 56.6453 16.5743C57.3216 14.8277 57.6604 13.0157 57.6604 11.139C57.6604 9.213 57.3036 7.34233 56.5894 5.52767C55.8745 3.713 54.8347 2.15767 53.4674 0.861001V0.620335H56.0955ZM23.2233 7.30567C23.9935 7.30567 24.6671 7.45967 25.2449 7.76833C25.7582 8.043 26.1808 8.38033 26.513 8.78167L26.6328 8.935V7.47233H29.2602V17.7317H26.6328V16.2317L26.5163 16.389C26.1935 16.8003 25.7695 17.1457 25.2449 17.4257C24.6545 17.741 23.9749 17.8983 23.204 17.8983C22.3353 17.8983 21.5425 17.6757 20.829 17.2317C20.1147 16.787 19.5489 16.161 19.1329 15.3517C18.7168 14.543 18.5092 13.6137 18.5092 12.565C18.5092 11.5277 18.7168 10.6083 19.1329 9.80567C19.5489 9.003 20.1147 8.38567 20.829 7.95367C21.5425 7.52167 22.3413 7.30567 23.2233 7.30567ZM3.3841 4.80567V10.1203H8.95498V4.80567H11.5637V17.7317H8.95498V12.2317H3.3841V17.7317H0.775391V4.80567H3.3841ZM23.8943 9.58367C23.4097 9.58367 22.9624 9.70033 22.5524 9.935C22.1423 10.1697 21.8101 10.5123 21.5552 10.963C21.3009 11.4137 21.1738 11.947 21.1738 12.565C21.1738 13.1823 21.3009 13.7223 21.5552 14.185C21.8101 14.6483 22.1456 15.003 22.5617 15.2503C22.9777 15.497 23.4224 15.6203 23.8943 15.6203C24.3782 15.6203 24.8322 15.5003 25.2536 15.259C25.6763 15.0183 26.0118 14.673 26.2601 14.2223C26.5083 13.7717 26.6328 13.2317 26.6328 12.6017C26.6328 11.9723 26.5083 11.4317 26.2601 10.9817C26.0118 10.531 25.6763 10.185 25.2536 9.94434C24.8322 9.70367 24.3782 9.58367 23.8943 9.58367ZM37.1422 9.58367C36.6703 9.58367 36.2263 9.70367 35.8102 9.94434C35.3942 10.185 35.0587 10.5337 34.8038 10.991C34.5488 11.4477 34.4217 11.9843 34.4217 12.6017C34.4217 13.2197 34.5488 13.7563 34.8038 14.213C35.0587 14.6697 35.3942 15.0183 35.8102 15.259C36.2263 15.5003 36.6703 15.6203 37.1422 15.6203C37.6268 15.6203 38.0768 15.497 38.4928 15.2503C38.9095 15.003 39.245 14.651 39.4993 14.1943C39.7543 13.7377 39.8814 13.1943 39.8814 12.565C39.8814 11.947 39.7543 11.4137 39.4993 10.963C39.245 10.5123 38.9095 10.1697 38.4928 9.935C38.0768 9.70033 37.6268 9.58367 37.1422 9.58367ZM49.7757 9.58367C49.3038 9.58367 48.8591 9.70367 48.4431 9.94434C48.027 10.185 47.6922 10.5337 47.4373 10.991C47.183 11.4477 47.0552 11.9843 47.0552 12.6017C47.0552 13.2197 47.183 13.7563 47.4373 14.213C47.6922 14.6697 48.027 15.0183 48.4431 15.259C48.8591 15.5003 49.3038 15.6203 49.7757 15.6203C50.2603 15.6203 50.711 15.497 51.127 15.2503C51.543 15.003 51.8785 14.651 52.1328 14.1943C52.3878 13.7377 52.5156 13.1943 52.5156 12.565C52.5156 11.947 52.3878 11.4137 52.1328 10.963C51.8785 10.5123 51.543 10.1697 51.127 9.935C50.711 9.70033 50.2603 9.58367 49.7757 9.58367Z" fill="#222222"/>
</svg>
