<svg width="22" height="20" viewBox="0 0 22 20" fill="none" xmlns="http://www.w3.org/2000/svg">
<path opacity="0.9" fill-rule="evenodd" clip-rule="evenodd" d="M6.2225 0.666668V0.883334L6.00084 1.10467C4.9065 2.22467 4.06511 3.54933 3.476 5.07933C2.84762 6.71134 2.53343 8.39334 2.53343 10.1253C2.53343 11.8127 2.83098 13.4413 3.42674 15.0127C4.02251 16.5833 4.87255 17.946 5.97687 19.1V19.3333H3.66438L3.46868 19.134C2.50215 18.1227 1.74463 16.856 1.19679 15.3373C0.611681 13.716 0.319458 11.9787 0.319458 10.1253C0.319458 8.22667 0.62566 6.442 1.2374 4.77133C1.8498 3.10067 2.74112 1.73267 3.91068 0.666668H6.2225ZM18.0293 0.666668L18.2456 0.870001C19.3093 1.90467 20.1281 3.20533 20.7019 4.77133C21.3143 6.442 21.6205 8.22667 21.6205 10.1253C21.6205 11.9787 21.3276 13.716 20.7431 15.3373C20.158 16.958 19.3353 18.29 18.2749 19.3333H15.9631V19.1L16.1801 18.8667C17.1792 17.7633 17.9567 16.4787 18.5125 15.0127C19.1089 13.4413 19.4065 11.8127 19.4065 10.1253C19.4065 8.39334 19.0923 6.71134 18.4639 5.07933C17.8349 3.44733 16.9196 2.04867 15.7174 0.883334V0.666668H18.0293ZM8.51835 4.43V9.20867H13.4209V4.43H15.7174V16.0527H13.4209V11.1073H8.51835V16.0527H6.2225V4.43H8.51835Z" fill="white"/>
</svg>
