<svg width="184" height="73" viewBox="0 0 184 73" fill="none" xmlns="http://www.w3.org/2000/svg">
<path d="M10.8871 52.376C11.5271 56.024 12.9991 58.84 15.3031 60.824C17.6711 62.808 20.8391 63.8 24.8071 63.8C30.1191 63.8 34.0231 61.72 36.5191 57.56C39.0791 53.4 40.2951 46.392 40.1671 36.536C38.8231 39.416 36.5831 41.688 33.4471 43.352C30.3111 44.952 26.8231 45.752 22.9831 45.752C18.6951 45.752 14.8551 44.888 11.4631 43.16C8.13513 41.368 5.51113 38.776 3.59113 35.384C1.67113 31.992 0.711126 27.896 0.711126 23.096C0.711126 16.248 2.69513 10.744 6.66313 6.584C10.6311 2.36 16.2631 0.247995 23.5591 0.247995C32.5191 0.247995 38.7911 3.16 42.3751 8.984C46.0231 14.808 47.8471 23.48 47.8471 35C47.8471 43.064 47.1111 49.72 45.6391 54.968C44.2311 60.216 41.7991 64.216 38.3431 66.968C34.9511 69.72 30.2791 71.096 24.3271 71.096C17.7991 71.096 12.7111 69.336 9.06313 65.816C5.41513 62.296 3.33513 57.816 2.82313 52.376H10.8871ZM24.4231 38.36C28.7111 38.36 32.2311 37.048 34.9831 34.424C37.7351 31.736 39.1111 28.12 39.1111 23.576C39.1111 18.776 37.7671 14.904 35.0791 11.96C32.3911 9.016 28.6151 7.544 23.7511 7.544C19.2711 7.544 15.6871 8.952 12.9991 11.768C10.3751 14.584 9.06313 18.296 9.06313 22.904C9.06313 27.576 10.3751 31.32 12.9991 34.136C15.6231 36.952 19.4311 38.36 24.4231 38.36ZM104.38 9.17599H70.6839V31.064C72.1559 29.016 74.3319 27.352 77.2119 26.072C80.0919 24.728 83.1959 24.056 86.5239 24.056C91.8359 24.056 96.1559 25.176 99.4839 27.416C102.812 29.592 105.18 32.44 106.588 35.96C108.06 39.416 108.796 43.096 108.796 47C108.796 51.608 107.932 55.736 106.204 59.384C104.476 63.032 101.82 65.912 98.2359 68.024C94.7159 70.136 90.3319 71.192 85.0839 71.192C78.3639 71.192 72.9239 69.464 68.7639 66.008C64.6039 62.552 62.0759 57.944 61.1799 52.184H69.7239C70.5559 55.832 72.3159 58.68 75.0039 60.728C77.6919 62.776 81.0839 63.8 85.1799 63.8C90.2359 63.8 94.0439 62.296 96.6039 59.288C99.1639 56.216 100.444 52.184 100.444 47.192C100.444 42.2 99.1639 38.36 96.6039 35.672C94.0439 32.92 90.2679 31.544 85.2759 31.544C81.8839 31.544 78.9079 32.376 76.3479 34.04C73.8519 35.64 72.0279 37.848 70.8759 40.664H62.6199V1.496H104.38V9.17599ZM118.485 17.24C118.485 12.888 119.797 9.432 122.421 6.872C125.045 4.248 128.405 2.936 132.501 2.936C136.597 2.936 139.957 4.248 142.581 6.872C145.205 9.432 146.517 12.888 146.517 17.24C146.517 21.656 145.205 25.176 142.581 27.8C139.957 30.36 136.597 31.64 132.501 31.64C128.405 31.64 125.045 30.36 122.421 27.8C119.797 25.176 118.485 21.656 118.485 17.24ZM174.549 3.992L135.669 71H127.029L165.909 3.992H174.549ZM132.501 8.31199C130.325 8.31199 128.597 9.08 127.317 10.616C126.101 12.088 125.493 14.296 125.493 17.24C125.493 20.184 126.101 22.424 127.317 23.96C128.597 25.496 130.325 26.264 132.501 26.264C134.677 26.264 136.405 25.496 137.685 23.96C138.965 22.36 139.605 20.12 139.605 17.24C139.605 14.296 138.965 12.088 137.685 10.616C136.405 9.08 134.677 8.31199 132.501 8.31199ZM155.253 57.752C155.253 53.336 156.565 49.848 159.189 47.288C161.813 44.664 165.173 43.352 169.269 43.352C173.365 43.352 176.693 44.664 179.253 47.288C181.877 49.848 183.189 53.336 183.189 57.752C183.189 62.104 181.877 65.592 179.253 68.216C176.693 70.84 173.365 72.152 169.269 72.152C165.173 72.152 161.813 70.872 159.189 68.312C156.565 65.688 155.253 62.168 155.253 57.752ZM169.173 48.824C166.997 48.824 165.269 49.592 163.989 51.128C162.709 52.6 162.069 54.808 162.069 57.752C162.069 60.632 162.709 62.84 163.989 64.376C165.269 65.848 166.997 66.584 169.173 66.584C171.349 66.584 173.077 65.848 174.357 64.376C175.637 62.84 176.277 60.632 176.277 57.752C176.277 54.808 175.637 52.6 174.357 51.128C173.077 49.592 171.349 48.824 169.173 48.824Z" fill="white"/>
</svg>
